<svg width="22" height="22" viewBox="0 0 22 22" fill="none" xmlns="http://www.w3.org/2000/svg">
<path d="M8.06705 0.00146667C7.38299 -0.0148902 6.70257 0.105707 6.06581 0.356166C5.42905 0.606624 4.84881 0.981884 4.35923 1.45987C3.86964 1.93786 3.48059 2.50893 3.21496 3.13948C2.94934 3.77002 2.8125 4.44732 2.8125 5.13153C2.8125 5.81573 2.94934 6.49303 3.21496 7.12358C3.48059 7.75413 3.86964 8.32519 4.35923 8.80318C4.84881 9.28117 5.42905 9.65643 6.06581 9.90689C6.70257 10.1573 7.38299 10.2779 8.06705 10.2616C8.75111 10.2779 9.43153 10.1573 10.0683 9.90689C10.705 9.65643 11.2853 9.28117 11.7749 8.80318C12.2645 8.32519 12.6535 7.75413 12.9191 7.12358C13.1848 6.49303 13.3216 5.81573 13.3216 5.13153C13.3216 4.44732 13.1848 3.77002 12.9191 3.13948C12.6535 2.50893 12.2645 1.93786 11.7749 1.45987C11.2853 0.981884 10.705 0.606624 10.0683 0.356166C9.43153 0.105707 8.75111 -0.0148902 8.06705 0.00146667Z" fill="#FF8C21"/>
<path d="M5.13333 13.1918C3.77189 13.1918 2.46621 13.7326 1.50352 14.6952C0.540832 15.6578 0 16.9634 0 18.3248L0 21.9868H16.1333V18.3248C16.1333 16.9634 15.5925 15.6578 14.6298 14.6952C13.6671 13.7326 12.3614 13.1918 11 13.1918H5.13333Z" fill="#164CA1"/>
<path d="M18.3329 14.6671H17.5996V22H21.9996V18.3335C21.9996 17.3611 21.6133 16.4286 20.9257 15.741C20.238 15.0534 19.3054 14.6671 18.3329 14.6671Z" fill="#FF8C21"/>
<path d="M16.8669 5.8678C15.8944 5.8678 14.9618 6.25408 14.2741 6.94167C13.5865 7.62926 13.2002 8.56183 13.2002 9.53422C13.2002 10.5066 13.5865 11.4392 14.2741 12.1268C14.9618 12.8144 15.8944 13.2006 16.8669 13.2006C17.8393 13.2006 18.772 12.8144 19.4596 12.1268C20.1472 11.4392 20.5335 10.5066 20.5335 9.53422C20.5335 8.56183 20.1472 7.62926 19.4596 6.94167C18.772 6.25408 17.8393 5.8678 16.8669 5.8678Z" fill="#164CA1"/>
</svg>
