<svg width="25" height="22" viewBox="0 0 25 22" fill="none" xmlns="http://www.w3.org/2000/svg">
<path d="M5.66667 12H1.13333C0.453333 12 0 12.4 0 13V21C0 21.6 0.453333 22 1.13333 22H5.66667C6.34667 22 6.8 21.6 6.8 21V13C6.8 12.4 6.34667 12 5.66667 12ZM23.8 8H19.2667C18.5867 8 18.1333 8.4 18.1333 9V21C18.1333 21.6 18.5867 22 19.2667 22H23.8C24.48 22 24.9333 21.6 24.9333 21V9C24.9333 8.4 24.48 8 23.8 8ZM14.7333 0H10.2C9.52 0 9.06667 0.4 9.06667 1V21C9.06667 21.6 9.52 22 10.2 22H14.7333C15.4133 22 15.8667 21.6 15.8667 21V1C15.8667 0.4 15.4133 0 14.7333 0Z" fill="#164CA1"/>
<path d="M9 1C9 0.447716 9.44772 0 10 0H15.4074C15.958 0 16.405 0.445034 16.4074 0.995593L16.4956 20.9956C16.498 21.5496 16.0496 22 15.4956 22H10C9.44772 22 9 21.5523 9 21V1Z" fill="#FF8C21"/>
</svg>
