<svg width="26" height="22" viewBox="0 0 26 22" fill="none" xmlns="http://www.w3.org/2000/svg">
<path d="M24.7968 9.56894L24.7951 9.56743L14.6232 0.593506C14.1896 0.210815 13.6132 0 13 0C12.3869 0 11.8104 0.210648 11.3767 0.593338L1.21012 9.56273C1.2067 9.56575 1.20327 9.56894 1.19985 9.57196C0.3095 10.362 0.311022 11.6439 1.20423 12.4319C1.6123 12.7921 2.15127 13.0007 2.72752 13.0226C2.75092 13.0246 2.77451 13.0256 2.79829 13.0256H3.20371V19.6298C3.20371 20.9367 4.40891 22 5.89055 22H9.8701C10.2734 22 10.6006 21.7115 10.6006 21.3555V16.1777C10.6006 15.5814 11.1505 15.0963 11.8264 15.0963H14.1736C14.8496 15.0963 15.3994 15.5814 15.3994 16.1777V21.3555C15.3994 21.7115 15.7264 22 16.1299 22H20.1095C21.5911 22 22.7963 20.9367 22.7963 19.6298V13.0256H23.1723C23.7852 13.0256 24.3617 12.8149 24.7956 12.4322C25.6898 11.6429 25.6902 10.3588 24.7968 9.56894Z" fill="#164CA1"/>
<path d="M11 17C11 16.4477 11.4477 16 12 16H14C14.5523 16 15 16.4477 15 17V21C15 21.5523 14.5523 22 14 22H12C11.4477 22 11 21.5523 11 21V17Z" fill="#FF8C21"/>
</svg>
