<svg width="22" height="22" viewBox="0 0 22 22" fill="none" xmlns="http://www.w3.org/2000/svg">
<path d="M20.7936 8.61117L19.0702 8.39208C18.9281 7.95483 18.753 7.53317 18.5486 7.13258L19.6129 5.76217C20.0438 5.20758 19.9933 4.42475 19.5011 3.94808L18.0573 2.50433C17.576 2.0075 16.7931 1.958 16.2376 2.38792L14.869 3.45217C14.4684 3.24775 14.0467 3.07267 13.6085 2.93058L13.3894 1.21C13.3069 0.51975 12.7211 0 12.0272 0H9.97375C9.2798 0 8.69403 0.51975 8.61152 1.20725L8.39243 2.93058C7.95425 3.07267 7.53256 3.24683 7.13196 3.45217L5.76241 2.38792C5.20872 1.958 4.42585 2.0075 3.94825 2.49975L2.50444 3.94258C2.00758 4.42475 1.95716 5.20758 2.38802 5.76308L3.45231 7.13258C3.24697 7.53317 3.07279 7.95483 2.93071 8.39208L1.21005 8.61117C0.519772 8.69367 0 9.27942 0 9.97333V12.0267C0 12.7206 0.519772 13.3063 1.2073 13.3888L2.93071 13.6079C3.07279 14.0452 3.24788 14.4668 3.45231 14.8674L2.38802 16.2378C1.95716 16.7924 2.00758 17.5753 2.49985 18.0519L3.94366 19.4957C4.42585 19.9916 5.2078 20.0411 5.76332 19.6112L7.13288 18.5469C7.53348 18.7523 7.95516 18.9273 8.39243 19.0685L8.61152 20.7882C8.69403 21.4802 9.2798 22 9.97375 22H12.0272C12.7211 22 13.3069 21.4803 13.3894 20.7928L13.6085 19.0694C14.0458 18.9273 14.4674 18.7523 14.868 18.5478L16.2385 19.6121C16.7931 20.0429 17.576 19.9925 18.0527 19.5003L19.4965 18.0565C19.9933 17.5743 20.0438 16.7924 19.6129 16.2369L18.5486 14.8674C18.7539 14.4668 18.929 14.0452 19.0702 13.6079L20.7899 13.3888C21.4802 13.3063 22 12.7206 22 12.0267V9.97333C22.0009 9.27942 21.4811 8.69367 20.7936 8.61117ZM11.0005 15.5833C8.4731 15.5833 6.41693 13.5273 6.41693 11C6.41693 8.47275 8.4731 6.41667 11.0005 6.41667C13.5278 6.41667 15.584 8.47275 15.584 11C15.584 13.5273 13.5278 15.5833 11.0005 15.5833Z" fill="#164CA1"/>
<circle cx="11" cy="11" r="2" fill="#FF8C21"/>
</svg>
