<svg width="17" height="19" viewBox="0 0 17 19" fill="none" xmlns="http://www.w3.org/2000/svg">
<path fill-rule="evenodd" clip-rule="evenodd" d="M7.08333 1.87891V0.479314C7.08333 0.352192 7.13308 0.230277 7.22164 0.140388C7.3102 0.0504991 7.43031 0 7.55556 0H9.44444C9.56969 0 9.6898 0.0504991 9.77836 0.140388C9.86691 0.230277 9.91667 0.352192 9.91667 0.479314V1.87891C10.7585 2.01976 11.574 2.29136 12.3344 2.68416L11.1586 4.75C11.096 4.8606 11.0792 4.99191 11.112 5.11506C11.1448 5.23821 11.2244 5.3431 11.3333 5.40666C11.4423 5.47022 11.5717 5.48724 11.693 5.45399C11.8143 5.42073 11.9177 5.33991 11.9803 5.22931L13.1514 3.16347C14.132 3.81715 14.9695 4.66885 15.6117 5.66549L13.5811 6.85898C13.5247 6.88895 13.4748 6.93019 13.4345 6.98022C13.3942 7.03026 13.3642 7.08806 13.3465 7.15015C13.3287 7.21223 13.3235 7.27732 13.3312 7.34149C13.3389 7.40566 13.3593 7.4676 13.3912 7.52356C13.423 7.57953 13.4657 7.62838 13.5167 7.66716C13.5676 7.70594 13.6258 7.73386 13.6877 7.74924C13.7495 7.76462 13.8138 7.76714 13.8766 7.75665C13.9395 7.74616 13.9996 7.72287 14.0533 7.68819L16.0886 6.4947C16.6206 7.55475 16.9309 8.71502 17 9.90262H14.6389C14.5136 9.90262 14.3935 9.95312 14.305 10.043C14.2164 10.1329 14.1667 10.2548 14.1667 10.3819C14.1667 10.5091 14.2164 10.631 14.305 10.7209C14.3935 10.8108 14.5136 10.8613 14.6389 10.8613H17C16.953 11.6644 16.794 12.4568 16.5278 13.2147C16.4182 13.0461 16.2967 12.8859 16.1642 12.7354C16.1046 12.6721 16.0291 12.6266 15.9458 12.6038C15.8626 12.581 15.7748 12.5817 15.6919 12.606L14.9506 12.8552C14.832 12.779 14.709 12.7102 14.5822 12.6491L14.4169 11.9493C14.396 11.8598 14.3501 11.7784 14.2848 11.7146C14.2195 11.6509 14.1375 11.6075 14.0486 11.5898C13.5094 11.4795 12.9539 11.4795 12.4147 11.5898C12.3258 11.6075 12.2438 11.6509 12.1785 11.7146C12.1132 11.7784 12.0673 11.8598 12.0464 11.9493L11.8811 12.6491C11.7544 12.7102 11.6313 12.779 11.5128 12.8552L10.7714 12.6395C10.6885 12.6153 10.6007 12.6145 10.5175 12.6373C10.4342 12.6601 10.3587 12.7056 10.2992 12.7689C9.92856 13.1638 9.64522 13.6344 9.46805 14.1493C9.43748 14.2397 9.43418 14.3372 9.45858 14.4294C9.48298 14.5217 9.53396 14.6044 9.605 14.667L10.1528 15.1463C10.1433 15.2708 10.1433 15.3957 10.1528 15.5202L9.605 15.9995C9.53488 16.0617 9.48447 16.1436 9.4601 16.2349C9.43573 16.3262 9.4385 16.4227 9.46805 16.5124C9.64442 17.0276 9.92786 17.4984 10.2992 17.8928C10.3582 17.9569 10.4335 18.0033 10.5168 18.027C10.6 18.0506 10.6881 18.0507 10.7714 18.027L11.5128 17.8065C11.6303 17.8845 11.7534 17.9534 11.8811 18.0126L11.9378 18.2571C11.0022 18.6864 9.99713 18.9382 8.97222 19V16.6034C8.97222 16.4763 8.92247 16.3544 8.83391 16.2645C8.74535 16.1746 8.62524 16.1241 8.5 16.1241C8.37476 16.1241 8.25465 16.1746 8.16609 16.2645C8.07753 16.3544 8.02778 16.4763 8.02778 16.6034V19C6.8564 18.9362 5.71113 18.6243 4.66556 18.0845L5.84139 16.0187C5.90401 15.9081 5.92078 15.7768 5.88801 15.6536C5.85525 15.5305 5.77563 15.4256 5.66667 15.362C5.55771 15.2984 5.42833 15.2814 5.30701 15.3147C5.18568 15.3479 5.08234 15.4288 5.01972 15.5394L3.84861 17.6052C2.86842 16.9529 2.03096 16.1029 1.38833 15.108L3.41889 13.9145C3.47532 13.8845 3.5252 13.8433 3.56552 13.7932C3.60585 13.7432 3.63578 13.6854 3.65352 13.6233C3.67127 13.5612 3.67646 13.4961 3.66878 13.432C3.6611 13.3678 3.64071 13.3059 3.60884 13.2499C3.57697 13.1939 3.53427 13.1451 3.48332 13.1063C3.43236 13.0675 3.37421 13.0396 3.31235 13.0242C3.25049 13.0088 3.1862 13.0063 3.12336 13.0168C3.06052 13.0273 3.00041 13.0506 2.94667 13.0853L0.911389 14.2931C0.376844 13.2272 0.0664796 12.0602 0 10.866H2.36111C2.48635 10.866 2.60646 10.8155 2.69502 10.7257C2.78358 10.6358 2.83333 10.5139 2.83333 10.3867C2.83333 10.2596 2.78358 10.1377 2.69502 10.0478C2.60646 9.95792 2.48635 9.90742 2.36111 9.90742H0C0.0640047 8.71921 0.369479 7.5573 0.897222 6.4947L2.9325 7.68819C2.98625 7.72287 3.04635 7.74616 3.10919 7.75665C3.17204 7.76714 3.23632 7.76462 3.29818 7.74924C3.36004 7.73386 3.4182 7.70594 3.46915 7.66716C3.5201 7.62838 3.5628 7.57953 3.59467 7.52356C3.62654 7.4676 3.64693 7.40566 3.65461 7.34149C3.66229 7.27732 3.6571 7.21223 3.63936 7.15015C3.62161 7.08806 3.59168 7.03026 3.55136 6.98022C3.51103 6.93019 3.46116 6.88895 3.40472 6.85898L1.38833 5.66549C2.03096 4.67058 2.86842 3.82054 3.84861 3.16826L5.01972 5.23411C5.08234 5.3447 5.18568 5.42552 5.30701 5.45878C5.42833 5.49204 5.55771 5.47501 5.66667 5.41145C5.77563 5.34789 5.85525 5.243 5.88801 5.11985C5.92078 4.99671 5.90401 4.86539 5.84139 4.75479L4.66556 2.68416C5.42598 2.29136 6.24146 2.01976 7.08333 1.87891ZM13.5717 12.4813L13.7228 13.1092C13.7409 13.1851 13.7771 13.2554 13.8281 13.3139C13.8792 13.3723 13.9435 13.4173 14.0156 13.4448C14.2181 13.5207 14.4089 13.6256 14.5822 13.7563C14.6405 13.8018 14.7084 13.8328 14.7805 13.8469C14.8526 13.8611 14.927 13.858 14.9978 13.8378L15.6636 13.6413C15.7876 13.8058 15.8952 13.9824 15.9847 14.1685L15.5125 14.5999C15.4523 14.6533 15.4064 14.7213 15.3791 14.7976C15.3519 14.8739 15.3441 14.9559 15.3567 15.0361C15.3897 15.2376 15.3897 15.4433 15.3567 15.6448C15.3441 15.725 15.3519 15.807 15.3791 15.8833C15.4064 15.9596 15.4523 16.0276 15.5125 16.081L15.9847 16.5124C15.8941 16.6979 15.7866 16.8744 15.6636 17.0396L14.9978 16.8431C14.9274 16.8223 14.8532 16.8183 14.7811 16.8316C14.709 16.845 14.6409 16.8751 14.5822 16.9198C14.4112 17.0541 14.2198 17.1593 14.0156 17.2313C13.943 17.2593 13.8783 17.3049 13.8272 17.3643C13.7761 17.4236 13.7403 17.4949 13.7228 17.5716L13.5717 18.1948C13.3459 18.2235 13.1174 18.2235 12.8917 18.1948L12.75 17.5716C12.7325 17.4949 12.6967 17.4236 12.6456 17.3643C12.5945 17.3049 12.5298 17.2593 12.4572 17.2313C12.253 17.1593 12.0616 17.0541 11.8906 16.9198C11.8319 16.8751 11.7638 16.845 11.6917 16.8316C11.6196 16.8183 11.5454 16.8223 11.475 16.8431L10.8092 17.0396C10.6845 16.8756 10.5769 16.6989 10.4881 16.5124L10.9603 16.081C11.0205 16.0276 11.0664 15.9596 11.0937 15.8833C11.1209 15.807 11.1286 15.725 11.1161 15.6448C11.0831 15.4433 11.0831 15.2376 11.1161 15.0361C11.1286 14.9559 11.1209 14.8739 11.0937 14.7976C11.0664 14.7213 11.0205 14.6533 10.9603 14.5999L10.4881 14.1685C10.5758 13.9814 10.6835 13.8046 10.8092 13.6413L11.475 13.8378C11.5457 13.858 11.6201 13.8611 11.6923 13.8469C11.7644 13.8328 11.8323 13.8018 11.8906 13.7563C12.0639 13.6256 12.2547 13.5207 12.4572 13.4448C12.5293 13.4173 12.5936 13.3723 12.6446 13.3139C12.6957 13.2554 12.7318 13.1851 12.75 13.1092L12.9011 12.4813C13.1272 12.4574 13.3551 12.4574 13.5811 12.4813H13.5717ZM13.2222 14.8779C13.3156 14.8779 13.4069 14.906 13.4846 14.9587C13.5622 15.0113 13.6228 15.0862 13.6585 15.1738C13.6942 15.2614 13.7036 15.3577 13.6854 15.4507C13.6671 15.5437 13.6222 15.6291 13.5561 15.6961C13.4901 15.7632 13.406 15.8088 13.3143 15.8273C13.2227 15.8458 13.1278 15.8363 13.0415 15.8C12.9552 15.7638 12.8815 15.7023 12.8296 15.6235C12.7777 15.5447 12.75 15.452 12.75 15.3572C12.75 15.2301 12.7998 15.1082 12.8883 15.0183C12.9769 14.9284 13.097 14.8779 13.2222 14.8779ZM13.4158 6.25025C13.484 6.15744 13.5167 6.04274 13.5081 5.92733C13.4994 5.81191 13.4499 5.70358 13.3686 5.62235C13.2883 5.54187 13.1822 5.49327 13.0695 5.48535C12.9569 5.47744 12.8452 5.51074 12.7547 5.57921C12.7547 5.57921 7.39972 9.64859 7.02667 10.0272C6.77643 10.2998 6.64019 10.6604 6.64667 11.0329C6.65314 11.4054 6.80182 11.7608 7.06138 12.0243C7.32094 12.2878 7.67111 12.4387 8.03812 12.4452C8.40514 12.4518 8.76034 12.3135 9.02889 12.0595C9.40194 11.6857 13.4158 6.25025 13.4158 6.25025ZM10.6581 8.37361C9.62389 9.75883 8.54722 11.1968 8.36306 11.3837C8.31916 11.4286 8.26693 11.4643 8.20938 11.4886C8.15184 11.513 8.09012 11.5255 8.02778 11.5255C7.96544 11.5255 7.90372 11.513 7.84617 11.4886C7.78863 11.4643 7.7364 11.4286 7.6925 11.3837C7.60455 11.2939 7.55518 11.1724 7.55518 11.0458C7.55518 10.9192 7.60455 10.7977 7.6925 10.7079C7.87667 10.5209 9.29333 9.42331 10.6581 8.37361ZM8.02778 1.91726H8.97222V4.15086C8.97222 4.27798 8.92247 4.3999 8.83391 4.48978C8.74535 4.57967 8.62524 4.63017 8.5 4.63017C8.37476 4.63017 8.25465 4.57967 8.16609 4.48978C8.07753 4.3999 8.02778 4.27798 8.02778 4.15086V1.91726ZM4.13194 1.40918L2.52639 2.36781C2.4236 2.43413 2.35004 2.5382 2.32106 2.65828C2.29208 2.77835 2.30994 2.90515 2.37089 3.01218C2.43184 3.11921 2.53118 3.1982 2.64815 3.23264C2.76513 3.26709 2.89069 3.25433 2.99861 3.19702L4.60417 2.2384C4.70695 2.17207 4.78052 2.068 4.80949 1.94793C4.83847 1.82785 4.82062 1.70106 4.75967 1.59403C4.69871 1.48699 4.59938 1.40801 4.4824 1.37356C4.36543 1.33912 4.23987 1.35188 4.13194 1.40918ZM14.4736 2.36781L12.8681 1.40918C12.7601 1.35188 12.6346 1.33912 12.5176 1.37356C12.4006 1.40801 12.3013 1.48699 12.2403 1.59403C12.1794 1.70106 12.1615 1.82785 12.1905 1.94793C12.2195 2.068 12.293 2.17207 12.3958 2.2384L14.0014 3.19702C14.1093 3.25433 14.2349 3.26709 14.3518 3.23264C14.4688 3.1982 14.5682 3.11921 14.6291 3.01218C14.6901 2.90515 14.7079 2.77835 14.6789 2.65828C14.65 2.5382 14.5764 2.43413 14.4736 2.36781Z" fill="black"/>
</svg>
