<svg width="18" height="17" viewBox="0 0 18 17" fill="none" xmlns="http://www.w3.org/2000/svg">
<path d="M7.10326 9.7725C8.15075 10.8351 9.41817 11.6555 10.8165 12.1761L12.7083 10.6707C12.7644 10.6321 12.8309 10.6114 12.899 10.6114C12.9671 10.6114 13.0336 10.6321 13.0896 10.6707L16.6022 12.9338C16.7355 13.014 16.8484 13.124 16.9319 13.2553C17.0154 13.3866 17.0672 13.5355 17.0833 13.6903C17.0994 13.8451 17.0792 14.0014 17.0245 14.1471C16.9697 14.2927 16.8818 14.4236 16.7678 14.5295L15.1219 16.1553C14.8862 16.3882 14.5965 16.5591 14.2787 16.6528C13.9608 16.7465 13.6247 16.76 13.3004 16.6922C10.0649 16.024 7.08276 14.459 4.69466 12.1761C2.35956 9.87047 0.743686 6.93679 0.0430466 3.73092C-0.0261675 3.4116 -0.0117216 3.07981 0.0849844 2.76772C0.18169 2.45562 0.357377 2.1738 0.595018 1.94956L2.30111 0.303679C2.40669 0.195185 2.53544 0.111982 2.67773 0.0602985C2.82002 0.00861534 2.97216 -0.0102082 3.12275 0.00523741C3.27335 0.020683 3.41849 0.0699975 3.54733 0.149488C3.67617 0.228979 3.78535 0.336586 3.8667 0.464252L6.20505 3.93164C6.24539 3.98608 6.26716 4.05205 6.26716 4.11981C6.26716 4.18757 6.24539 4.25353 6.20505 4.30798L4.66455 6.15959C5.19925 7.52996 6.0323 8.76411 7.10326 9.7725Z" fill="#164CA1"/>
<path d="M12 7H13C12.9988 5.9395 12.577 4.92278 11.8271 4.17289C11.0772 3.423 10.0605 3.00119 9 3V4C9.79541 4.00079 10.558 4.31712 11.1204 4.87956C11.6829 5.44199 11.9992 6.20459 12 7Z" fill="#FF8C21"/>
<path d="M14.9231 7H16C15.9979 5.14414 15.2597 3.36491 13.9474 2.05261C12.6351 0.740322 10.8559 0.00213768 9 0V1.07692C10.5703 1.07878 12.0758 1.70341 13.1862 2.8138C14.2966 3.92419 14.9212 5.42967 14.9231 7Z" fill="#FF8C21"/>
</svg>
