<svg width="21" height="17" viewBox="0 0 21 17" fill="none" xmlns="http://www.w3.org/2000/svg">
<path d="M5.12879 0L0 5.12879L2.56439 6.71619L5.12879 5.12879L6.57691 2.56439L5.12879 0Z" fill="#164CA1"/>
<path d="M5.12879 5.12878H0V11.7962L2.56439 13.2044L5.12879 11.7962V5.12878Z" fill="#0084FF"/>
<path d="M0 11.7963V15.2154C0 16.1557 0.769318 16.9251 1.70961 16.9251H5.12879L6.57691 14.2027L5.12879 11.7963H0Z" fill="#0066DD"/>
<path d="M19.4556 1.82091L16.2836 4.33366V4.35942L15.249 8.30899L16.2836 12.306L19.4415 14.8476C19.8652 15.2031 20.5148 14.9045 20.5148 14.3498V2.31865C20.5148 1.76402 19.8793 1.46538 19.4556 1.82091Z" fill="#164CA1"/>
<path d="M16.284 4.33371V1.68998C16.284 0.760503 15.5311 0 14.6108 0H11.2642H5.12891V5.12879H11.4117V8.4625L14.7872 8.08646L16.284 4.33371Z" fill="#FF8C21"/>
<path d="M11.4117 11.7962H5.12891V16.925H11.2642H14.6108C15.5311 16.925 16.284 16.1656 16.284 15.2375V12.3091L14.6094 8.86878L11.4117 8.46252V11.7962Z" fill="#164CA1"/>
<path d="M11.4111 8.46254L16.2835 12.3091V4.33374L11.4111 8.46254Z" fill="#233956"/>
</svg>
