<svg width="25" height="22" viewBox="0 0 25 22" fill="none" xmlns="http://www.w3.org/2000/svg">
<path d="M16.8906 18.8413L21.189 21.8563C21.4988 22.0737 21.9261 22.0414 22.1971 21.78L24.7724 19.2963C25.0116 19.0636 25.0685 18.7084 24.9133 18.4167C22.938 14.655 18.1272 12 12.5004 12C6.87371 12 2.06287 14.655 0.0875845 18.4167C-0.0687103 18.7087 -0.0121026 19.0648 0.22766 19.2979L2.8029 21.78C3.07394 22.0414 3.50122 22.0737 3.81101 21.8563L8.10939 18.8413C8.26275 18.7337 8.37006 18.5755 8.41109 18.3967L8.9283 16.1367C9.00574 15.8078 9.26724 15.5485 9.6054 15.4654C11.5031 14.9976 13.4918 14.9976 15.3894 15.4654C15.7276 15.5484 15.989 15.8077 16.0661 16.1367L16.5833 18.3967C16.6258 18.5763 16.7352 18.7346 16.8906 18.8413Z" fill="#164CA1"/>
<path d="M22 0L14.1758 0.801265L16.6944 3.12256L12.4516 7.03305L5.26986 1.14919C4.90877 0.845869 4.3986 0.744983 3.9343 0.885084C3.47 1.02519 3.12333 1.38462 3.02678 1.82603C2.93023 2.26744 3.09872 2.72259 3.46786 3.01756L11.6053 9.68435C12.142 10.1239 12.9574 10.1018 13.4652 9.63393L18.6121 4.89009L21.1306 7.21139L22 0Z" fill="#FF8C21"/>
</svg>
