<svg width="23" height="23" viewBox="0 0 23 23" fill="none" xmlns="http://www.w3.org/2000/svg">
<path d="M13.656 0H2.63537C1.17873 0 0 1.17873 0 2.63537V17.4893C0 18.9459 1.17873 20.1246 2.63537 20.1246H9.70775L9.91858 18.9459C10.0144 18.4093 10.2636 17.9301 10.6469 17.5372L16.2914 11.9023V2.63537C16.2914 1.17873 15.1127 0 13.656 0ZM3.83327 3.83327H7.66653C8.19361 3.83327 8.62485 4.26451 8.62485 4.79158C8.62485 5.31866 8.19361 5.7499 7.66653 5.7499H3.83327C3.30619 5.7499 2.87495 5.31866 2.87495 4.79158C2.87495 4.26451 3.30619 3.83327 3.83327 3.83327ZM8.62485 13.4164H3.83327C3.30619 13.4164 2.87495 12.9852 2.87495 12.4581C2.87495 11.931 3.30619 11.4998 3.83327 11.4998H8.62485C9.15192 11.4998 9.58316 11.931 9.58316 12.4581C9.58316 12.9852 9.15192 13.4164 8.62485 13.4164ZM12.4581 9.58316H3.83327C3.30619 9.58316 2.87495 9.15192 2.87495 8.62485C2.87495 8.09777 3.30619 7.66653 3.83327 7.66653H12.4581C12.9852 7.66653 13.4164 8.09777 13.4164 8.62485C13.4164 9.15192 12.9852 9.58316 12.4581 9.58316Z" fill="#164CA1"/>
<path d="M11.7184 22.8116C11.5296 22.8116 11.3456 22.7368 11.2105 22.6007C11.0447 22.4349 10.9699 22.1992 11.0111 21.9673L11.519 19.0875C11.544 18.9428 11.6149 18.8087 11.7184 18.7042L18.8339 11.5897C19.7078 10.7138 20.5665 10.9505 21.0361 11.4201L22.2215 12.6055C22.876 13.2591 22.876 14.3228 22.2215 14.9773L15.106 22.0928C15.0025 22.1973 14.8684 22.2672 14.7227 22.2922L11.8429 22.8001C11.8017 22.8077 11.7596 22.8116 11.7184 22.8116Z" fill="#FF8C21"/>
</svg>
