<svg width="18" height="23" viewBox="0 0 18 23" fill="none" xmlns="http://www.w3.org/2000/svg">
<path fill-rule="evenodd" clip-rule="evenodd" d="M9 3C5.13401 3 2 6.13401 2 10V15.5858L0.87868 16.7071C0.31607 17.2697 0 18.0328 0 18.8284V20C0 20.5523 0.44772 21 1 21H6.17071C6.58254 22.1652 7.6938 23 9 23C10.3062 23 11.4175 22.1652 11.8293 21H17C17.5523 21 18 20.5523 18 20V18.8284C18 18.0328 17.6839 17.2697 17.1213 16.7071L16 15.5858V10C16 6.13401 12.866 3 9 3ZM4 10C4 7.23858 6.23858 5 9 5C11.7614 5 14 7.23858 14 10V15.9127C14 16.2338 14.1276 16.5418 14.3546 16.7689L15.7071 18.1213C15.8946 18.3089 16 18.5632 16 18.8284V19H2V18.8284C2 18.5632 2.10536 18.3089 2.29289 18.1213L3.64535 16.7689C3.87243 16.5418 4 16.2338 4 15.9127V12.9564V10Z" fill="#164CA1"/>
<path d="M4 10C4 7.23858 6.23858 5 9 5C11.7614 5 14 7.23858 14 10V15.9127C14 16.2338 14.1276 16.5418 14.3546 16.7689L15.7071 18.1213C15.8946 18.3089 16 18.5632 16 18.8284V19H2V18.8284C2 18.5632 2.10536 18.3089 2.29289 18.1213L3.64535 16.7689C3.87243 16.5418 4 16.2338 4 15.9127V12.9564V10Z" fill="#164CA1"/>
<circle cx="9" cy="2" r="2" fill="#FF8C21"/>
</svg>
