<svg width="18" height="18" viewBox="0 0 18 18" fill="none" xmlns="http://www.w3.org/2000/svg">
<path d="M17.1407 16.7439L13.4437 13.0469M13.4437 13.0469C14.0761 12.4146 14.5777 11.6638 14.92 10.8376C15.2622 10.0114 15.4384 9.12579 15.4384 8.23148C15.4384 7.33717 15.2622 6.45161 14.92 5.62537C14.5777 4.79913 14.0761 4.04839 13.4437 3.41602C12.8114 2.78364 12.0606 2.28201 11.2344 1.93977C10.4081 1.59754 9.52258 1.42139 8.62827 1.42139C7.73396 1.42139 6.8484 1.59753 6.02216 1.93977C5.19592 2.28201 4.44518 2.78364 3.81281 3.41602C2.53567 4.69316 1.81818 6.42533 1.81818 8.23148C1.81818 10.0376 2.53567 11.7698 3.81281 13.0469C5.08995 14.3241 6.82212 15.0416 8.62827 15.0416C10.4344 15.0416 12.1666 14.3241 13.4437 13.0469Z" stroke="#414141" stroke-width="1.70248" stroke-linecap="round" stroke-linejoin="round"/>
</svg>
