<svg width="15" height="15" viewBox="0 0 15 15" fill="none" xmlns="http://www.w3.org/2000/svg">
<path d="M13.2202 10.3875C15.5933 8.01439 15.5932 4.15299 13.2202 1.77985C10.8471 -0.593284 6.98571 -0.593284 4.61263 1.77985C2.59935 3.79313 2.29443 6.7874 3.69707 9.1256C3.69707 9.1256 3.79782 9.29463 3.66175 9.4306C2.88546 10.2068 0.556442 12.5359 0.556442 12.5359C-0.0616435 13.1539 -0.208784 14.0182 0.339331 14.5664L0.433704 14.6607C0.981819 15.2089 1.8461 15.0618 2.46414 14.4437C2.46414 14.4437 4.78823 12.1196 5.56293 11.3449C5.70552 11.2023 5.8745 11.3031 5.8745 11.3031C8.21266 12.7057 11.2069 12.4008 13.2202 10.3875ZM5.7363 9.2638C3.9828 7.51029 3.98285 4.65718 5.73635 2.90367C7.48986 1.15022 10.343 1.15017 12.0964 2.90367C13.8499 4.65713 13.8499 7.51029 12.0964 9.2638C10.3429 11.0172 7.48986 11.0172 5.7363 9.2638Z" fill="#BFC5CB" fill-opacity="0.92"/>
<path d="M6.12516 5.72247C6.04354 5.72247 5.96057 5.70643 5.8806 5.67265C5.56115 5.53745 5.41169 5.16885 5.54689 4.84935C6.39668 2.84114 8.72178 1.89872 10.7299 2.7485C11.0494 2.88371 11.1989 3.25231 11.0637 3.57181C10.9284 3.89132 10.5599 4.04068 10.2403 3.90552C8.87018 3.32576 7.28368 3.96878 6.70396 5.3389C6.60253 5.57852 6.36991 5.72247 6.12516 5.72247Z" fill="#BFC5CB" fill-opacity="0.92"/>
</svg>
