<svg id="Capa_1" enable-background="new 0 0 512 512" height="512" viewBox="0 0 512 512" width="512" xmlns="http://www.w3.org/2000/svg"><g><g><g><g><g><g><path d="m107.354 464.448c-64.989-46.427-107.354-122.49-107.354-208.448 0-141.385 114.615-256 256-256s256 114.615 256 256c0 85.958-42.365 162.021-107.354 208.448z" fill="#80dbff"/></g></g></g></g></g><path d="m512 256c0-9.259-.492-18.402-1.45-27.407l-128.124-128.124-105.648 70.566-68.654-68.654-74.191 76.959 53.393 53.393-60.175 41.504 190.212 190.212h87.284c64.988-46.428 107.353-122.491 107.353-208.449z" fill="#4ab8f7"/><g><path d="m196.994 338.24 59.006 132.184 61.699-132.184z" fill="#fff"/></g><g><path d="m256 338.24v132.184l61.699-132.184z" fill="#e9edf5"/></g><g><path d="m196.994 338.24h-20.98l33.908 78.165 33.443 52.54 12.635-22.217z" fill="#ff8fb8"/></g><g><path d="m169.272 338.24c-21.187 0-39.438 14.933-43.633 35.7l-18.284 90.508c32.742 23.39 71.227 39.259 112.93 45.08l23.08-40.583-67.35-130.705z" fill="#ff73a5"/></g><g><path d="m404.646 464.448-18.284-90.508c-4.195-20.767-22.447-35.7-43.633-35.7h-3.755l-55.205 90.762-37.12 82.828c3.104.111 6.221.17 9.352.17 55.426 0 106.739-17.615 148.645-47.552z" fill="#ff468c"/></g><g><path d="m386.361 373.94c-4.196-20.767-22.447-35.7-43.634-35.7h-3.755l-55.205 90.762-27.767 61.961v21.037c55.427 0 106.74-17.615 148.646-47.552z" fill="#be1964"/></g><g><path d="m317.699 338.24-97.415 171.288c8.657 1.208 17.453 1.982 26.364 2.302l92.325-173.59z" fill="#ffa1c8"/></g><g><path d="m317.699 338.24-61.699 108.488v47.519l82.973-156.007z" fill="#ff73a5"/></g><g><g><ellipse cx="152.398" cy="244.398" fill="#faa68e" rx="39.095" ry="39.095" transform="matrix(.924 -.383 .383 .924 -81.927 76.924)"/></g><g><ellipse cx="359.602" cy="244.398" fill="#e09380" rx="39.095" ry="39.095" transform="matrix(.924 -.383 .383 .924 -66.154 156.217)"/></g></g><g><g><circle cx="344.053" cy="137.887" fill="#333940" r="53.621"/></g><g><circle cx="167.947" cy="137.887" fill="#555a66" r="53.621"/></g></g><g><path d="m266.746 328.037h-21.493c-60.567 0-109.667-49.099-109.667-109.666v-17.302c0-52.334 42.425-94.759 94.76-94.759h51.307c52.334 0 94.759 42.425 94.759 94.759v17.302c.001 60.567-49.098 109.666-109.666 109.666z" fill="#636978"/></g><g><path d="m281.653 106.309h-25.653v221.728h10.746c60.567 0 109.667-49.1 109.667-109.667v-17.302c0-52.334-42.425-94.759-94.76-94.759z" fill="#414952"/></g><g><path d="m153.904 229.016c-.91 5.516-1.393 11.176-1.393 16.951 0 57.155 46.333 103.488 103.488 103.488s103.488-46.333 103.488-103.488c0-5.774-.483-11.435-1.393-16.951z" fill="#ffbeaa"/></g><g><path d="m358.096 229.016h-102.096v120.439c57.155 0 103.488-46.333 103.488-103.488 0-5.775-.482-11.435-1.392-16.951z" fill="#faa68e"/></g><g><path d="m386.1 407.489c0-8.838-6.85-16.076-15.53-16.694-.618-8.68-7.856-15.53-16.694-15.53s-16.075 6.85-16.694 15.53c-8.68.618-15.531 7.855-15.531 16.694 0 8.838 6.85 16.076 15.531 16.694.618 8.68 7.856 15.531 16.694 15.531s16.076-6.851 16.694-15.53c8.68-.62 15.53-7.858 15.53-16.695z" fill="#e9edf5"/></g><g><circle cx="353.875" cy="407.489" fill="#ff73a5" r="12.287"/></g><g><path d="m184.736 447.142c0-8.838-6.85-16.076-15.53-16.694-.618-8.68-7.856-15.53-16.694-15.53s-16.075 6.85-16.694 15.53c-8.68.618-15.531 7.855-15.531 16.694 0 8.838 6.85 16.076 15.531 16.694.618 8.68 7.856 15.531 16.694 15.531s16.076-6.851 16.694-15.53c8.68-.62 15.53-7.857 15.53-16.695z" fill="#fff"/></g><g><circle cx="152.512" cy="447.142" fill="#ffa1c8" r="12.287"/></g><g><g><path d="m190.388 380.307c0-5.668-4.394-10.31-9.961-10.707-.397-5.567-5.039-9.961-10.707-9.961s-10.31 4.394-10.707 9.961c-5.567.396-9.961 5.038-9.961 10.707s4.394 10.311 9.961 10.707c.396 5.567 5.038 9.961 10.707 9.961s10.311-4.394 10.707-9.961c5.567-.397 9.961-5.039 9.961-10.707z" fill="#fff"/></g><g><circle cx="169.72" cy="380.307" fill="#ffa1c8" r="7.88"/></g></g><g><g><path d="m331.564 468.945c0-5.668-4.394-10.31-9.961-10.707-.397-5.567-5.039-9.961-10.707-9.961s-10.31 4.393-10.707 9.961c-5.567.397-9.961 5.038-9.961 10.707s4.394 10.311 9.961 10.707c.397 5.567 5.039 9.961 10.707 9.961s10.311-4.394 10.707-9.961c5.567-.396 9.961-5.038 9.961-10.707z" fill="#e9edf5"/></g><g><circle cx="310.896" cy="468.945" fill="#ff73a5" r="7.88"/></g></g></g></svg>