<svg id="Capa_1" enable-background="new 0 0 503.725 503.725" height="512" viewBox="0 0 503.725 503.725" width="512" xmlns="http://www.w3.org/2000/svg"><path d="m455.773 503.722h-100.17v-158.993l59.765 11.839c32.104 6.362 55.405 34.73 55.405 67.454v64.7c0 8.284-6.716 15-15 15z" fill="#f2d1a5"/><path d="m150.462 503.722h-102.51c-8.284 0-15-6.716-15-15v-64.7c0-32.724 23.301-61.092 55.404-67.454l62.105-12.297v159.451z" fill="#ffe4c2"/><path d="m300.554 333.822h-97.383l-82.709 16.391v153.509h265.141v-153.05z" fill="#ffbc36"/><path d="m253.032 333.822v169.9h132.571v-153.05l-85.049-16.85z" fill="#fe8205"/><path d="m299.38 282.161h-95.035c-8.284 0-15 6.716-15 15v39.401l48.313 156.986c2.066 6.084 7.778 10.178 14.204 10.178s12.138-4.093 14.204-10.178l48.313-156.986v-39.4c.001-8.285-6.715-15.001-14.999-15.001z" fill="#ffe4c2"/><path d="m299.38 282.184h-46.348v221.518c5.941-.463 11.094-4.419 13.034-10.131l48.313-156.986v-39.4c.001-8.285-6.715-15.001-14.999-15.001z" fill="#f2d1a5"/><path d="m371.185 131.901h-25.188c-8.284 0-15 6.716-15 15v60c0 8.284 6.716 15 15 15h25.188c24.813 0 45-20.187 45-45s-20.187-45-45-45z" fill="#f2d1a5"/><path d="m157.729 131.901h-25.189c-24.813 0-45 20.187-45 45s20.187 45 45 45h25.188c8.284 0 15-6.716 15-15v-60c.001-8.284-6.715-15-14.999-15z" fill="#ffe4c2"/><path d="m251.863 19.968c-60.177 0-109.134 48.957-109.134 109.134l.001 77.725c-.126 25.284 5.267 46.023 16.975 65.27 10.762 17.693 26.729 34.072 51.771 53.109 11.889 9.037 26.137 13.557 40.384 13.557s28.496-4.52 40.384-13.557c25.042-19.037 41.009-35.416 51.771-53.109 11.708-19.246 17.101-39.985 16.975-65.193l.005-77.801c.001-60.178-48.956-109.135-109.132-109.135z" fill="#fff2de"/><path d="m253.032 19.983v318.756c13.855-.241 27.65-4.744 39.213-13.533 25.042-19.037 41.009-35.416 51.771-53.109 11.708-19.246 17.101-39.985 16.975-65.193l.005-77.801c0-59.787-48.325-108.49-107.964-109.12z" fill="#ffe4c2"/><path d="m266.441 266.953h-29.156c-8.284 0-15-6.716-15-15s6.716-15 15-15h29.156c8.284 0 15 6.716 15 15s-6.716 15-15 15z" fill="#f2d1a5"/><path d="m266.441 236.953h-13.408v30h13.408c8.284 0 15-6.716 15-15s-6.716-15-15-15z" fill="#f2bb88"/><path d="m360.996 101.901v-86.9c0-5.595-3.114-10.725-8.078-13.308-4.964-2.582-10.953-2.188-15.533 1.025l-22.77 15.963-22.77-15.963c-5.169-3.623-12.054-3.623-17.222 0l-22.765 15.963-22.766-15.962c-5.169-3.623-12.054-3.624-17.223.001l-22.764 15.961-22.764-15.961c-4.581-3.214-10.57-3.609-15.534-1.026-4.964 2.582-8.078 7.712-8.078 13.308v86.9h218.267z" fill="#f2d813"/><path d="m360.996 101.901v-86.9c0-5.595-3.114-10.725-8.078-13.308-4.964-2.582-10.953-2.188-15.533 1.025l-22.77 15.963-22.77-15.963c-5.169-3.623-12.054-3.623-17.222 0l-21.591 15.139v84.043h107.964z" fill="#ffbc36"/><path d="m142.729 71.901h218.267v60h-218.267z" fill="#636978"/><path d="m253.032 71.901h107.964v60h-107.964z" fill="#414952"/><path d="m211.863 71.901h80v60h-80z" fill="#f5fafc"/><path d="m253.032 71.901h38.83v60h-38.83z" fill="#dbeeff"/></svg>